<svg width="512" height="512" viewBox="0 0 512 512" fill="none" xmlns="http://www.w3.org/2000/svg">
<rect width="512" height="512" fill="#171717" fill-opacity="0.666667"/>
<path d="M158.8 365.6C147.8 365.6 137 363 126.4 357.8C115.8 352.6 107.1 344.3 100.3 332.9L115.9 317.6C121.5 326.4 128 333 135.4 337.4C143 341.6 150.6 343.7 158.2 343.7C172.2 343.7 182.5 340 189.1 332.6C195.7 325 199 313.1 199 296.9V185.9H116.5V164.9H223.9V299C223.9 311.2 221.9 322.4 217.9 332.6C213.9 342.6 207.1 350.6 197.5 356.6C188.1 362.6 175.2 365.6 158.8 365.6ZM285.283 362V165.2H310.483V263.9H311.383L394.183 165.2H422.683L310.483 299.3V362H285.283ZM401.683 362L340.783 252.2L356.083 232.4L429.883 362H401.683Z" fill="white"/>
</svg>
